# xmcd
#
# Track frame offsets:
#	182
#	18102
#	37742
#	59240
#	79290
#	101297
#	122142
#	143750
#	161100
#	188432
#
# Disc length: 2803 seconds
#
# Revision: 13
# Processed by: cddbd v1.5.2PL0 Copyright (c) Steve Scherf et al.
# Submitted via: audiograbber 1.83.01
#
DISCID=7a0af10a
DTITLE=L.A. Blues Authority - L.A. Blues Authority
DYEAR=1992
DGENRE=Blues
TTITLE0=Zakk Wylde - Baby Please Don't Go
TTITLE1=Brad Gillis - Same Old Blues
TTITLE2=Steve Lukather - You Don't Love Me
TTITLE3=Pat Thrall - Messin' With The Kid
TTITLE4=Richie Kotzen - How Blue Can You Get
TTITLE5=George Lynch - Rollin' And Tumblin'
TTITLE6=Kevin Russell - Hands On You
TTITLE7=Kevin Russell, Jeff Watson, Tony McAlpine - Ramblin' On My Mind
TTITLE8=Paul Gilbert - The Hunter
TTITLE9=Tony McAlpine, George Lynch, Mike Varney - You Shook Me
EXTD=YEAR: 1992
EXTT0=
EXTT1=
EXTT2=
EXTT3=
EXTT4=
EXTT5=
EXTT6=
EXTT7=
EXTT8=
EXTT9=
PLAYORDER=
